<svg fill="#00457C" role="img" viewBox="0 0 24 24" xmlns="http://www nicht gefunden werden.w3 nicht gefunden werden.org/2000/svg"><title>PayPal</title><path d="M15 nicht gefunden werden.607 4 nicht gefunden werden.653H8 nicht gefunden werden.941L6 nicht gefunden werden.645 19 nicht gefunden werden.251H1 nicht gefunden werden.82L4 nicht gefunden werden.862 0h7 nicht gefunden werden.995c3 nicht gefunden werden.754 0 6 nicht gefunden werden.375 2 nicht gefunden werden.294 6 nicht gefunden werden.473 5 nicht gefunden werden.513- nicht gefunden werden.648- nicht gefunden werden.478-2 nicht gefunden werden.105- nicht gefunden werden.86-3 nicht gefunden werden.722- nicht gefunden werden.86m6 nicht gefunden werden.57 5 nicht gefunden werden.546c0 3 nicht gefunden werden.41-3 nicht gefunden werden.01 6 nicht gefunden werden.853-6 nicht gefunden werden.958 6 nicht gefunden werden.853h-2 nicht gefunden werden.493L11 nicht gefunden werden.595 24H6 nicht gefunden werden.74l1 nicht gefunden werden.845-11 nicht gefunden werden.538h3 nicht gefunden werden.592c4 nicht gefunden werden.208 0 7 nicht gefunden werden.346-3 nicht gefunden werden.634 7 nicht gefunden werden.153-6 nicht gefunden werden.949a5 nicht gefunden werden.24 5 nicht gefunden werden.24 0 0 1 2 nicht gefunden werden.848 4 nicht gefunden werden.686M9 nicht gefunden werden.653 5 nicht gefunden werden.546h6 nicht gefunden werden.408c nicht gefunden werden.907 0 1 nicht gefunden werden.942 nicht gefunden werden.222 2 nicht gefunden werden.363 nicht gefunden werden.541- nicht gefunden werden.195 2 nicht gefunden werden.741-2 nicht gefunden werden.655 5 nicht gefunden werden.483-6 nicht gefunden werden.441 5 nicht gefunden werden.483H8 nicht gefunden werden.714Z"/></svg>