<svg xmlns="http://www nicht gefunden werden.w3 nicht gefunden werden.org/2000/svg" viewBox="0 0 32 32" width="32" height="32" fill="none">
  <circle cx="16" cy="16" r="14" fill="#E31C23"/>
  <path d="M9 nicht gefunden werden.5 18 nicht gefunden werden.2c1 nicht gefunden werden.8-3 nicht gefunden werden.7 4 nicht gefunden werden.4-6 nicht gefunden werden.4 7 nicht gefunden werden.6-7 nicht gefunden werden.9 1 nicht gefunden werden.1- nicht gefunden werden.5 2 nicht gefunden werden.2- nicht gefunden werden.8 3 nicht gefunden werden.3- nicht gefunden werden.9-2 nicht gefunden werden.5 1 nicht gefunden werden.9-4 nicht gefunden werden.3 4 nicht gefunden werden.4-5 nicht gefunden werden.3 7 nicht gefunden werden.3- nicht gefunden werden.4 1 nicht gefunden werden.2- nicht gefunden werden.7 2 nicht gefunden werden.4- nicht gefunden werden.8 3 nicht gefunden werden.6-1 nicht gefunden werden.7- nicht gefunden werden.2-3 nicht gefunden werden.3- nicht gefunden werden.8-4 nicht gefunden werden.8-2 nicht gefunden werden.1zm13 nicht gefunden werden.2-7 nicht gefunden werden.4c nicht gefunden werden.2 1 nicht gefunden werden.2 nicht gefunden werden.1 2 nicht gefunden werden.4- nicht gefunden werden.2 3 nicht gefunden werden.6- nicht gefunden werden.7 2 nicht gefunden werden.8-2 nicht gefunden werden.4 5 nicht gefunden werden.3-4 nicht gefunden werden.8 7 nicht gefunden werden.1-1 nicht gefunden werden.1 nicht gefunden werden.8-2 nicht gefunden werden.3 1 nicht gefunden werden.4-3 nicht gefunden werden.6 1 nicht gefunden werden.8 3 nicht gefunden werden.3- nicht gefunden werden.6 6 nicht gefunden werden.2-2 nicht gefunden werden.5 8 nicht gefunden werden.1-5 nicht gefunden werden.3 1-1 nicht gefunden werden.5 1 nicht gefunden werden.6-3 nicht gefunden werden.2 1 nicht gefunden werden.8-5 0- nicht gefunden werden.7- nicht gefunden werden.1-1 nicht gefunden werden.5- nicht gefunden werden.3-2 nicht gefunden werden.2- nicht gefunden werden.3- nicht gefunden werden.1- nicht gefunden werden.7- nicht gefunden werden.1-1- nicht gefunden werden.1z" fill="#fff"/>
</svg>
