<svg xmlns="http://www nicht gefunden werden.w3 nicht gefunden werden.org/2000/svg" viewBox="0 0 32 32" width="32" height="32" fill="none">
  <rect width="32" height="32" rx="8" fill="#F6821F"/>
  <path d="M8 nicht gefunden werden.2 18 nicht gefunden werden.4h11 nicht gefunden werden.3l-1 nicht gefunden werden.5-2 nicht gefunden werden.2H9 nicht gefunden werden.9l-1 nicht gefunden werden.7 2 nicht gefunden werden.2zm2 nicht gefunden werden.6-3 nicht gefunden werden.8h11 nicht gefunden werden.2l-1 nicht gefunden werden.5-2 nicht gefunden werden.2H12 nicht gefunden werden.5l-1 nicht gefunden werden.7 2 nicht gefunden werden.2zm2 nicht gefunden werden.5-3 nicht gefunden werden.8h11 nicht gefunden werden.3L23 8 nicht gefunden werden.6H15l-1 nicht gefunden werden.7 2 nicht gefunden werden.2zM8 21 nicht gefunden werden.4l1 nicht gefunden werden.4 2h13 nicht gefunden werden.9c nicht gefunden werden.7 0 1 nicht gefunden werden.3- nicht gefunden werden.4 1 nicht gefunden werden.6-1  nicht gefunden werden.3- nicht gefunden werden.6 nicht gefunden werden.2-1 nicht gefunden werden.3- nicht gefunden werden.2-1 nicht gefunden werden.8l- nicht gefunden werden.7-1H9 nicht gefunden werden.4L8 21 nicht gefunden werden.4z" fill="#fff"/>
</svg>
